<?xml version="1.0" encoding="utf-8"?>
<!-- Generator: Adobe Illustrator 25.2.3, SVG Export Plug-In . SVG Version: 6.00 Build 0)  -->
<svg version="1.1" id="Layer_1" xmlns="http://www.w3.org/2000/svg" xmlns:xlink="http://www.w3.org/1999/xlink" x="0px" y="0px"
	 viewBox="0 0 420.3 368.8" style="enable-background:new 0 0 420.3 368.8;" xml:space="preserve">
<style type="text/css">
	.st0{fill:#C0E6E4;}
	.st1{fill:#3537A6;}
	.st2{fill:#00367D;}
	.st3{fill:#E2B4BD;}
	.st4{fill:#002657;}
	.st5{fill:#DDAFB8;}
	.st6{fill:#DD96A9;}
	.st7{fill:#D891A4;}
	.st8{fill:#E5E8F1;}
	.st9{fill:#E4A183;}
	.st10{fill:#FFFFFF;}
	.st11{fill:#DEAD6D;}
	.st12{fill:#A3B1C7;}
	.st13{fill:#B8C8E0;}
	.st14{fill:#60A3A1;}
	.st15{fill:#81C0BE;}
	.st16{fill:none;stroke:#FFFFFF;stroke-miterlimit:10;}
	.st17{fill:none;stroke:#FFFFFF;stroke-linecap:round;stroke-linejoin:round;stroke-miterlimit:10;}
</style>
<path class="st0" d="M263.2,337.8c-41,15.8-88.4,20.2-128.5,2.1s-70-62.1-62.6-105.5c2.8-16.5,10.5-32.5,8.5-49.1
	c-2.2-18.9-16.5-34.1-21.8-52.3c-5.1-17.4-1.5-36.5,6.8-52.6s21.2-29.4,35.1-41.1c21.9-18.4,47.5-33.6,75.8-38.1s59.5,3.3,78.7,24.5
	c29.7,32.8,25.5,88.8,59.7,116.8c15.5,12.7,36.5,17.2,52.2,29.7c14.8,11.8,23.9,30.5,23.9,49.5C391,282,310,319.8,263.2,337.8z"/>
<g>
	<g>
		<g>
			<path class="st1" d="M242.9,82.3c-1.1-7.4-1.5-16.2-7.9-20.8c-9.9-7.3-24.5-1.9-35.3-0.1C190.1,63,189,73.9,188,81.9
				c-0.7,5.4-0.5,11.7-2.1,16.9c-1.7,5.3-5.4,9.5-6.7,15.1c-2.7,11.4,0.1,24.2,7.4,33.5c8.2,10.4,20.8,16.4,33.7,18.2
				c7,1,13.1,1.2,20.1,2.7c7.6,1.6,15.6,1.9,23.2,0.1c11.3-2.6,21.8-10,26.5-20.6c4.6-10.6,2.4-24.4-6.4-31.8
				c-6.9-5.8-16.3-7.2-24.6-10.7c-9.6-4.1-13.7-10.7-15.6-20.5C243.2,84,243.1,83.1,242.9,82.3z"/>
			<path class="st2" d="M283.5,260.6c4.4-2.6,4.4-10.2,4.4-10.2c-2-10.8-4-21.7-7.1-32.3c-2.4-8-5.5-14.9-7.4-23.3
				c-2.6-11.6-5.1-23.1-7.7-34.7c-1.7-7.5-1.5-12.4-8.2-16.7c-7.5-4.7-17.8-6.2-26.4-4.9c11.3,11.6,11.9,30.2,15.3,45.2
				c2.2,9.8,4.8,19.6,7.9,29.2c3,9.2,7.6,17.7,10.9,26.7l6.1,16.8c0,0,0.4,1,1,2.2C273.5,260.8,279,263.1,283.5,260.6z"/>
			<path class="st3" d="M258.5,41.2l-0.5-0.3C258.4,41.1,258.5,41.2,258.5,41.2z"/>
			<path class="st4" d="M215.5,314.9c-2.2-0.3-4.3-0.5-6.5-0.7c1.8,0.2,3.2-10.6,3.1-12c-0.2-3.5-1.9-7.2-2.6-10.8
				c-1.9-9.3-3.4-18.8-5.1-28.1l34.6-7.5l6.6,8c13.9,4.7,27.7,9.6,41.5,14.6c11,4,22,8,32.9,12.2c3.9,1.5,10.5,2.8,12.9,6.5
				c2.6,3.9,2.2,12.2,1.9,16.6c-0.3,5.2-2,10.5-5.6,14.2c-6.6,6.9-13.4,4.6-21.1,2.7c-9-2.2-18.7-2.8-27.8-4.3
				c-10.4-1.6-20.9-3.3-31.3-5c0,0-14.9-4.7-15-4.7c-4-1.3-8.1-0.9-12.2-1.2C219.7,315.3,217.6,315.1,215.5,314.9z"/>
			<path class="st4" d="M211.2,313.9c1.2-0.2,2.4-0.5,3.7-0.6c0.4-4.4,0.9-8.5,1.7-12.8c0.8-4.3,2.6-9.3,2.6-13.7
				c1.4-7.6,2.8-15.3,4.3-22.9l-34.6-7.6l-6.6,8c-13.8,4.6-27.5,9.4-41.3,14.3c-18.9,6.7-49.4,11-47.5,37.3c0.4,5.1,2.5,12,6.5,15.4
				c3.5,3,6.4,1.5,10.6,0.8c10.1-1.8,20.3-3,30.5-4.5c12.5-1.9,25-3.8,37.5-5.8c0,0,14.9-4.6,15-4.7c3.7-1.1,7.5-1,11.1-1.8
				C206.9,314.8,209,314.4,211.2,313.9z"/>
			<g>
				<path class="st5" d="M224.1,143.1l-2.1,2.6c-4.3,5.5-11.7,5.1-15.6-0.9l-2.8-4.4c0.5-6.6,1.1-13.1,1.5-17.3
					c0.3-3,0.5-4.9,0.5-4.9l8.2,1l7.3-1c0,0,1.1,6.7,2,14.7C223.5,136.3,223.9,139.8,224.1,143.1z"/>
				<path class="st6" d="M223.1,132.9c-4.5,0.1-9.1-1.3-12.8-4c-2.1-1.6-3.9-3.5-5.2-5.8c0.3-3,0.5-4.9,0.5-4.9l8.2,1l7.3-1
					C221.1,118.3,222.2,125,223.1,132.9z"/>
				<path class="st2" d="M194.2,139.1l8.1-0.1l31.9,0.1c0,0,14.1,7.7,10.6,18.4c-3.4,10.6-38.7,21.1-38.7,21.1l-16.8-8.2
					c0,0-3.4-4.6-4-8.2s-1.7-5.7-0.6-8.2c1.1-2.5,3.3-12.1,3.3-12.1L194.2,139.1z"/>
				<g>
					<path class="st1" d="M185.9,72.5c0,0-3.2,7.8,0.8,11.8c4,4,5.6,13.6,5.6,13.6s8.8-23.2,8.8-24
						C201.1,73.1,185.9,72.5,185.9,72.5z"/>
					<path class="st5" d="M236.9,94c-1.6-0.3-3.1,0.1-4.2,1V72.6l-27.1-7.3l-15.6,3.2l2.9,18.2c1.9,11.6-0.6,26,10.9,33.3
						c5.1,3.2,14.5,4.7,19.7,0.8c4.5-3.4,6.8-10.6,9.1-15.7c0,0,0.4-0.6,1.6-0.6c3.3,0,5.9-2.6,5.2-6C239.1,96.5,239,94.4,236.9,94z
						"/>
					<path class="st7" d="M234.9,96.6c0,0-2.2,3.7-0.7,6c1.5,2.2,2.2-1.5,1.5-2.2s-0.7,0,0.7-0.7C237.9,98.8,234.9,96.6,234.9,96.6z
						"/>
					<path class="st1" d="M232.8,91.4c2.6,0.3,5.1,0.2,7-0.9c5.1-2.8,4.5-11.9,3.2-16.9c-1.5-5.9-5.8-11.7-11.5-14.2
						c-29.6-13.7-50.9,13.6-46.4,20.5c4.5,6.7,19.8-9.9,22.6-13.3c5.1,6.9,4.1,14.8,12.5,20.3C223.1,88.7,228.2,90.9,232.8,91.4z"/>
					<path class="st1" d="M231.7,84.7c4,2.9,7.6,5.3,8.9,6.7c0.7-7,4.2-17.9-0.8-24.1c-2-2.5-4.5-4-7.4-5.3
						c-6.5-3-14.4-6.7-21.8-6.2c-14.1,1-19.1,15.4-19.8,27.2c11.2,0.5,22.4-6.3,27.2-16.4C215.4,72,224.3,79.2,231.7,84.7z"/>
					<path class="st8" d="M209.4,93.6"/>
				</g>
			</g>
			<g>
				<path class="st3" d="M272.6,259.3c0.6,0.6,1.2,1.2,1.9,1.7c2.1,1.5,67.7,32.7,67.7,32.7l3.6-7.5c0,0-52.6-34.9-55.5-36.8
					c-2.3-1.5-3.7-1.8-4.3-1.9l-0.4,0c0,0-6.1-3-10.1,0.9c-4,3.9-4.5,8.4-3.4,10.3C272.3,259,272.4,259.2,272.6,259.3z"/>
				<path class="st2" d="M331.4,275.4c0,0-7,4-9.1,12.6c0,0-47.2-21.7-50.7-31.7c-3.5-10,4.1-17.6,4.1-17.6h10.2L331.4,275.4z"/>
				<g>
					<path class="st3" d="M346.7,292.4c0,0,6.7-3.7,9.8-4.7s20-7,22.4-7.6c2.3-0.6,3.4-3.4,3.4-3.4s7.6-1.9,7.3-3.6s-3-1.8-4.6-1.3
						c-1.6,0.5-4,1.3-4,1.3s-2.3-0.6-3.1-0.4c-1,0.2-8.9,1.6-9.1,2.3c0.5-1.7-0.3-3.5-1.4-4.9c-0.7-1-1.7-1.9-2.9-1.9
						c-1.5,0-2.5,1.4-3.3,2.7c0.4,1.1,0.8,2.3,1.3,3.4c0.1,0.2,0.2,0.4,0.2,0.7c0.3,1.2-0.3,2.5-1.4,3c-0.8,0.4-11.6-0.5-11.5,1.9
						c1-3.1,3.6-5.5,6.8-6.3c1.3-0.3,2.6-0.4,3.7-1.1c0.6-0.4,2.6-4.6,1.7-4.5c-1.9,0.3-3.8,0.7-5.7,1c-5.9,1.1-10.6,2.9-13.8,8.1
						c-2.3,3.8-3.6,7-2.5,11.4c0.2,0.6,1.4,5.5,2.9,5C342.9,293.7,346.7,292.4,346.7,292.4z"/>
					<g>
						<path class="st9" d="M363.3,281.4l-0.2-0.6l7.5-2.6c2.8-0.7,8.2-1.9,8.7-2.1c0.7-0.2,1.8-1.2,1.8-1.5c0-0.3-0.3-0.8-0.4-1
							l0.6-0.4c0,0.1,0.5,0.8,0.5,1.4c0,0.8-1.5,1.9-2.3,2.1c-0.7,0.2-8.4,2-8.7,2.1L363.3,281.4z"/>
					</g>
					<g>
						
							<rect x="367.2" y="279.3" transform="matrix(0.9325 -0.3611 0.3611 0.9325 -75.6638 154.2861)" class="st9" width="15.5" height="0.7"/>
					</g>
				</g>
			</g>
			<path class="st2" d="M149.3,260.6c-4.4-2.6-4.4-10.2-4.4-10.2c2-10.8,4-21.7,7.1-32.3c2.4-8,5.5-14.9,7.4-23.3
				c2.6-11.6,5.1-23.1,7.7-34.7c1.7-7.5,1.5-12.4,8.2-16.7c7.4-4.7,14-5.1,22.5-4.6c-4,6.5-7.2,16.5-7.6,24.2
				c-0.3,5.2-9.4,52.5-22.7,76.6l-6.1,16.8c0,0-0.4,1-1,2.2C159.3,260.8,153.7,263.1,149.3,260.6z"/>
			<g>
				<path class="st3" d="M161.2,257.4c-0.5,0.6-1.1,1.3-1.8,1.8c-2,1.6-66,36.1-66,36.1l-4-7.3c0,0,50.8-37.5,53.6-39.5
					c2.2-1.6,3.6-2,4.2-2.1l0.4,0c0,0,5.9-3.3,10.1,0.4s4.9,8.2,3.9,10.1C161.5,257.1,161.3,257.2,161.2,257.4z"/>
				<g>
					<path class="st3" d="M88.8,294.2c0,0-6.9-3.3-10-4.2c-3.2-0.9-20.4-6-22.7-6.4c-2.4-0.4-3.5-3.2-3.5-3.2s-7.7-1.5-7.4-3.2
						c0.3-1.7,2.9-1.9,4.5-1.5s4,1.1,4,1.1s2.2-0.7,3-0.5c1,0.2,8.9,1.1,9.2,1.8c-0.6-1.6,0.1-3.5,1.1-4.9c0.7-1,1.6-2,2.8-2.1
						c1.5-0.1,2.6,1.3,3.5,2.5c-0.4,1.2-0.7,2.3-1.1,3.5c-0.1,0.2-0.1,0.4-0.2,0.7c-0.2,1.2,0.4,2.4,1.5,2.9
						c0.8,0.4,11.5-1.1,11.6,1.3c-1.2-3-3.9-5.3-7.1-5.9c-1.3-0.3-2.6-0.3-3.8-0.9c-0.7-0.4-2.9-4.5-2-4.4c1.9,0.2,3.8,0.5,5.7,0.7
						c5.9,0.8,10.8,2.3,14.2,7.4c2.5,3.7,4,6.8,3.1,11.3c-0.1,0.6-1.1,5.6-2.7,5.2C92.7,295.3,88.8,294.2,88.8,294.2z"/>
					<g>
						<path class="st9" d="M71.7,283.9l-7.6-2.2c-0.3-0.1-8.1-1.5-8.8-1.7c-0.7-0.2-2.3-1.3-2.4-2c-0.1-0.6,0.3-1.3,0.4-1.4l0.6,0.3
							c-0.1,0.2-0.3,0.7-0.3,1c0,0.3,1.2,1.2,1.9,1.4c0.5,0.2,6,1.2,8.8,1.7l7.7,2.2L71.7,283.9z"/>
					</g>
					<g>
						
							<rect x="59.5" y="275" transform="matrix(0.3137 -0.9495 0.9495 0.3137 -227.3831 250.8576)" class="st9" width="0.7" height="15.5"/>
					</g>
				</g>
			</g>
			<path class="st2" d="M167.7,264.2c-0.2,1.5-0.3,3.1-0.1,4.6c0.7,5.1,4,7.6,8.6,8.5c4.5,0.9,9,2.5,13.7,2.6
				c10.7,0.2,30.6,2,41.4,1.4c7.2-0.4,26.4-1.7,26.4-12.2c0-6.4-3.8-14.1-4.8-20.6c-1-6.5-1.6-13-1.7-19.6
				c-0.2-14.1,3.7-27.3,4.5-41.2c0.5-7.6-0.5-15.3-2.8-22.5c-1.7-5.5-2.9-11.7-6-16.6c-1.7-2.7-7.5-6.7-8.2-0.7
				c-0.6,5,3.4,8.9-1.2,13.7c-7.3,7.7-23.4,8.7-23.4,8.7s-16.1-1-23.4-8.7c-4.7-5,2.5-20-0.4-21.2c-4.4-1.8-8.4,10.6-9.4,13.3
				c-3.2,9.1-6.2,16.6-5.4,26.5c0.5,6.5,2,12.9,3.4,19.3c1.2,5.8,0.1,11.5-0.6,17.4c-1.4,13.3-4.3,26.4-8.4,39
				C169,258.6,168.1,261.4,167.7,264.2z"/>
			<path class="st6" d="M218.1,317.6c-4.9,1.1-8.5,1.6-14.4,0.3c-6.3-1.3-13.6,3.1-18.8,6.1c-3.2,1.9-6.4,4.2-9.9,5.5
				c-3.7,1.4-7.7,2.4-11.5,3.6c-0.9,0.3-1.9,0.6-2.6,1.2s-1.4,1.5-1.3,2.4c0.1,1.5,1.6,2.5,3.1,2.5c1.5,0,2.8-0.6,4.1-1.3
				c-0.9,0.3-1.7,0.5-2.4,1.1c-0.7,0.6-1.2,1.5-1,2.4c0.3,1.2,1.8,1.7,3,1.5c1.2-0.3,2.1-1.1,3-2c-2.9-0.4-2.1,2.2-1,3.3
				c1.7,1.6,5.7,1.3,7.8,1.2c11.4-0.5,20.5-4,31-7.9c5.1-1.9,9.5-4.2,14.9-4.3c8.6-0.2,17.2-0.2,25.8-0.3
				c16.9-0.2,33.7-0.4,50.6-0.6c8.1-0.1,16.5-0.3,23.4-4.4c6.9-4.1,11.3-13.6,7.2-20.5c-2.4-4-7-6.2-11.7-6.8
				c-4.6-0.6-9.3,0.3-13.9,1.1c-18.3,3.3-36.6,6.7-54.9,10c-9.1,1.7-18.4,2.9-27.4,5C220.2,317.1,219.1,317.4,218.1,317.6z"/>
			<path class="st4" d="M200.8,340.4c-1.2,0.5-15.6,3.5-12.5-7.8s14.9-16,13.8-15.7c-1.1,0.2-4.8-1.7-13.8,2.3
				c-11.5,5.2-25.6,7.3-30.5,20.5c-0.8,2.1-0.7,4.8,0.9,6.4c2,2.1,5.3,1.9,8.2,1.5C178.8,346.2,189.9,345.6,200.8,340.4z"/>
			<path class="st2" d="M215.3,314.4c-1.1,0.1-2.1,0.3-3.2,0.4c0.8,7.6,1.6,15.2,2.4,22.7c4-0.1,8-0.1,11.9-0.2
				c2.1,0,5.6,2.4,7.9,2.9c3.1,0.7,6.3,0.8,9.4,0.5c5.6-0.6,9.7-3.3,15.3-2.9c7.6,0.6,15.1,2.1,22.6,2.8c17.4,1.5,41.4,3.6,56-8
				c20.5-16.3,0.9-41-11.9-42.1c-11.5-1-24.8,2.6-35.3,6.6c-14,5.3-32.4,4.2-47.3,5.5c-4.2,0.4-8.5,0.8-12.4,2.4s-7.5,4.6-8.7,8.7
				C219.8,313.8,217.5,314.1,215.3,314.4z"/>
			<path class="st4" d="M200.4,319.2c2-2.4,5.1-4.5,8-3.4c2.9,1.1,3.8,4.7,3.7,7.8c-0.1,5.5-4,21.2-12.3,18.2
				C191.4,338.7,196.6,323.8,200.4,319.2z"/>
			<path class="st3" d="M210.4,319.1c4.9,1.1,8.5,1.6,14.4,0.3c6.3-1.3,13.6,3.1,18.8,6.1c6,3.5,14,6.5,17.9,12.6
				c1.6,2.4,2,5.8,0.3,8.2c-1.6,2.2-4.6,2.9-7.4,3c-6.1,0.3-10.7-1.8-16.2-3.7c-5.7-2-11.2-4.4-16.9-6.5c-5.1-1.9-9.5-4.2-14.9-4.3
				c-8.6-0.2-17.2-0.2-25.8-0.3c-16.9-0.2-33.7-0.4-50.6-0.6c-8.1-0.1-16.5-0.3-23.4-4.4c-6.9-4.1-11.3-13.6-7.2-20.5
				c2.4-4,7-6.2,11.7-6.8s9.3,0.3,13.9,1.1c18.3,3.3,36.6,6.7,54.8,10c9.1,1.7,18.4,2.9,27.4,5C208.3,318.6,209.4,318.8,210.4,319.1
				z"/>
			<path class="st2" d="M202.8,313.9c2.1,1.2,4.4,2.4,5,2.2c-4.6,1.9-8.4,5.8-9.9,10.6s-1,10.1,1.6,14.4c-8.8-0.1-17.6-0.8-26.3-0.4
				c-13,0.5-26,0.5-38.9,0.8c-14.7,0.3-30.2,0.9-42.5-8.9c-20.5-16.3-0.9-41,11.9-42.1c11.9-1,25.2,3.1,36.8,5.6
				c9,1.9,17.3,4.6,26.6,6c7.4,1.1,13.9,2.4,20.9,5.1c3.7,1.4,7.3,2.9,10.8,4.5C199.4,311.9,201,312.9,202.8,313.9z"/>
		</g>
		<polygon class="st10" points="212.1,200.2 230.8,140.1 197.7,138.8 		"/>
		<polygon class="st10" points="212.2,238.2 208.6,264.4 216.7,264.4 		"/>
		<path class="st2" d="M101.3,276.5c0,0,7,4,9.1,12.6c0,0,47.2-21.7,50.7-31.7c3.5-10-4.1-17.6-4.1-17.6h-10.2L101.3,276.5z"/>
		<path class="st5" d="M197.7,138.8c0,0,0.4,14.7,16.2,14.7s17.4-14.9,17.4-14.9L197.7,138.8z"/>
		<polyline class="st4" points="197.7,138.8 184.4,151.1 212.1,200.2 197.7,138.8 		"/>
		<polyline class="st4" points="231.6,138.8 245.7,149.8 212.2,199.9 231.6,138.8 		"/>
		<circle class="st4" cx="212.1" cy="208.5" r="2.8"/>
		<circle class="st4" cx="212.1" cy="230.4" r="2.8"/>
		<path class="st4" d="M231.3,343c3.7,1.5,11.2,1.7,13.1-2.9c2.7-6.8-3-14.9-9-17.5c-5.4-2.3-11-1.9-16.7-2.3
			c3.4-4.1,11.9-4.8,16.5-3.4c6.7,2.1,12,7.3,17.9,10.9c3.7,2.3,7.5,4.5,10.8,7.4c2.9,2.6,17.2,22.1,5.7,19.1
			c-6.8-1.8-13.4-3.6-20.3-4.7C242.6,348.5,237.5,345.4,231.3,343z"/>
	</g>
	<polygon class="st4" points="207.8,264.4 204.6,284.4 220.7,284.4 217.2,264.4 	"/>
	<polygon class="st4" points="252.5,247.9 231,255.6 233.4,261.4 253.7,255.6 	"/>
	<path class="st4" d="M172.1,246.3c0.1-0.2,21.9,6.5,21.9,6.5l-2.5,7.5l-21.7-5.6L172.1,246.3z"/>
	<polygon class="st11" points="125.6,133.2 130.1,141.5 138.4,146 130.1,150.5 125.6,158.8 121.1,150.5 112.8,146 121.1,141.5 	"/>
	<polygon class="st11" points="319.8,208.1 323.7,215.2 330.8,219.1 323.7,223 319.8,230.1 315.9,223 308.8,219.1 315.9,215.2 	"/>
	<polygon class="st11" points="279.3,85.7 282.1,90.8 287.2,93.6 282.1,96.4 279.3,101.4 276.6,96.4 271.5,93.6 276.6,90.8 	"/>
	<polygon class="st11" points="78.1,346.8 80.9,351.9 86,354.6 80.9,357.4 78.1,362.5 75.4,357.4 70.3,354.6 75.4,351.9 	"/>
	<polygon class="st11" points="335,353.1 337.8,358.2 342.8,360.9 337.8,363.7 335,368.8 332.2,363.7 327.2,360.9 332.2,358.2 	"/>
</g>
<g>
	
		<rect x="15.1" y="130.2" transform="matrix(0.9127 -0.4087 0.4087 0.9127 -67.0179 36.0215)" class="st12" width="71.3" height="89.3"/>
	
		<rect x="34.7" y="148.3" transform="matrix(0.9493 -0.3145 0.3145 0.9493 -57.1196 31.9075)" class="st13" width="71.3" height="89.3"/>
	<g>
		
			<rect x="61" y="176.2" transform="matrix(0.9493 -0.3144 0.3144 0.9493 -52.2413 32.9895)" class="st10" width="30.3" height="4.5"/>
		
			<rect x="48.4" y="165.7" transform="matrix(0.9493 -0.3144 0.3144 0.9493 -49.5769 28.5111)" class="st10" width="30.3" height="4.5"/>
		
			<rect x="42.2" y="185.3" transform="matrix(0.9493 -0.3145 0.3145 0.9493 -56.5186 24.808)" class="st10" width="12.7" height="4.5"/>
		
			<rect x="45.4" y="195.3" transform="matrix(0.9493 -0.3145 0.3145 0.9493 -59.6729 25.2751)" class="st10" width="6.2" height="4.5"/>
		
			<rect x="57.2" y="189.3" transform="matrix(0.9493 -0.3145 0.3145 0.9493 -56.8415 30.7153)" class="st10" width="19.2" height="4.5"/>
		
			<rect x="83.7" y="182" transform="matrix(0.9493 -0.3145 0.3145 0.9493 -53.4403 37.2499)" class="st10" width="10.1" height="4.5"/>
		
			<rect x="48" y="202.1" transform="matrix(0.9493 -0.3145 0.3145 0.9493 -61.3132 28.6492)" class="st10" width="20.2" height="4.5"/>
		
			<rect x="73.3" y="193.1" transform="matrix(0.9493 -0.3144 0.3144 0.9493 -57.1049 36.6937)" class="st10" width="23.8" height="4.5"/>
		
			<rect x="51.3" y="213.1" transform="matrix(0.9493 -0.3144 0.3144 0.9493 -64.9183 28.2026)" class="st10" width="7.4" height="4.5"/>
		
			<rect x="62.8" y="206.9" transform="matrix(0.9493 -0.3144 0.3144 0.9493 -62.0327 33.749)" class="st10" width="21.5" height="4.5"/>
		
			<rect x="89.4" y="200" transform="matrix(0.9493 -0.3144 0.3144 0.9493 -58.7885 39.984)" class="st10" width="10.3" height="4.5"/>
		
			<rect x="53.9" y="219.9" transform="matrix(0.9493 -0.3144 0.3144 0.9493 -66.5885 31.5197)" class="st10" width="21" height="4.5"/>
		
			<rect x="80.6" y="210.9" transform="matrix(0.9493 -0.3144 0.3144 0.9493 -62.3513 39.6637)" class="st10" width="22.4" height="4.5"/>
	</g>
</g>
<g>
	<polygon class="st14" points="347.7,65.2 356.7,63.2 419.1,77.8 397.6,138.5 339,89.6 	"/>
	
		<rect x="318.5" y="85.8" transform="matrix(0.3341 -0.9425 0.9425 0.3341 127.6347 428.9936)" class="st15" width="97.9" height="76.7"/>
	<polygon class="st15" points="413.7,126.8 401.6,127.2 411.9,98.2 420.3,108 	"/>
	
		<rect x="360.4" y="83.1" transform="matrix(0.3341 -0.9425 0.9425 0.3341 150.7921 421.7415)" class="st10" width="26.9" height="42.1"/>
</g>
<g>
	<path class="st4" d="M393.1,215.3l-13.7-18.5c-1.1-1.5-3.2-1.8-4.6-0.7l-36.3,26.9c-1.5,1.1-1.8,3.2-0.7,4.6l13.7,18.5
		c1.1,1.5,3.2,1.8,4.6,0.7l36.3-26.9C393.9,218.8,394.2,216.7,393.1,215.3z"/>
	<path class="st13" d="M338.9,224.7l37.5-27.7c0.4-0.3,1-0.2,1.3,0.2l14.7,19.8c0.3,0.4,0.2,1-0.2,1.3l-37.5,27.7
		c-0.4,0.3-1,0.2-1.3-0.2l-14.7-19.8C338.4,225.5,338.5,225,338.9,224.7z"/>
	<path class="st10" d="M377.3,223.2c-2.4,1.8-5.4,2.1-8,1.1c-1.5-0.5-2.9-1.5-3.9-2.9c-1-1.4-1.6-3-1.6-4.6c-0.2-2.7,1-5.5,3.4-7.3
		c3.8-2.8,9.1-2,11.9,1.8C381.9,215.1,381.1,220.4,377.3,223.2z"/>
	<path class="st10" d="M351.2,230.7c-1.7,1.2-4,0.9-5.2-0.8c-1.2-1.7-0.9-4,0.8-5.2c1.7-1.2,4-0.9,5.2,0.8
		C353.2,227.2,352.8,229.5,351.2,230.7z"/>
	<path class="st10" d="M357.1,238.7c-1.7,1.2-4,0.9-5.2-0.8c-1.2-1.7-0.9-4,0.8-5.2s4-0.9,5.2,0.8
		C359.1,235.1,358.7,237.4,357.1,238.7z"/>
	<path class="st15" d="M375.2,217.5c-1.2,0.9-2.8,0.6-3.7-0.5c-0.9-1.2-0.6-2.8,0.5-3.7c1.2-0.9,2.8-0.6,3.7,0.5
		C376.7,214.9,376.4,216.6,375.2,217.5z"/>
	<path class="st15" d="M370.2,223.7l-0.1,0.1c-1.5-0.5-2.9-1.5-3.9-2.9c-1-1.4-1.6-3-1.6-4.6l0.1-0.1c2.1-1.5,5-1.1,6.5,1
		C372.7,219.3,372.3,222.2,370.2,223.7z"/>
	<path class="st4" d="M381.8,201.5c0.1,0.2-1.3,2.3-1.3,2.3l6.2,8.5l3.4-0.1C390.2,212.2,381.5,201,381.8,201.5z"/>
	<polygon class="st4" points="382.2,226.7 386.6,223.5 387.3,224.6 383,227.8 	"/>
</g>
<g>
	<path class="st4" d="M140.2,43.2l-17,34.4c-0.9,1.8-3.1,2.5-4.8,1.6l-50.6-25c-1.8-0.9-2.5-3.1-1.6-4.8l17-34.4
		c0.9-1.8,3.1-2.5,4.8-1.6l50.6,25C140.3,39.2,141,41.4,140.2,43.2z"/>
	<path class="st16" d="M72.9,35.6c1.8,0.7,56.3,29.7,56.3,29.7"/>
	<line class="st16" x1="100.1" y1="42.2" x2="107.5" y2="45.7"/>
</g>
<circle class="st16" cx="200.4" cy="95.9" r="7.6"/>
<circle class="st16" cx="219.7" cy="95.9" r="7.6"/>
<line class="st17" x1="227.4" y1="95.9" x2="233.6" y2="93.6"/>
<line class="st16" x1="208.1" y1="95.9" x2="212.1" y2="95.9"/>
</svg>
